<svg xmlns="http://www.w3.org/2000/svg" viewBox="0 0 172.47 192.16"><defs><style>.cls-1{fill:#ed4980;}.cls-2{fill:#14859c;}.cls-3{fill:#cc245b;}.cls-4{fill:#07637f;}</style></defs><g id="Layer_2" data-name="Layer 2"><g id="Layer_1-2" data-name="Layer 1"><path class="cls-1" d="M28.49,108.87c-6-2.9-10.56-7.76-14.47-13.28C7.26,86.06,3.36,75.12,3.86,63.22c.79-18.58,8.49-33.27,24-42.63a48.6,48.6,0,0,1,23.76-6.71c29.76-1.1,59.52-.52,89.28-.79.8,0,1.6.08,2.82.16a99.65,99.65,0,0,1-9.89,9.67l.73,1.2L172.47,0c-.39,2.78-2.18,3.55-3.27,4.66-1.26,1.27-2.3,2.73-3.53,4-9,9.24-17.89,18.52-26.51,28.13-3.64,4.06-7.56,7.84-11.31,11.79-1.58,1.68-3.53,1.59-5.49,1.59-18.92,0-37.84,0-56.76,0-3.93,0-7.81,0-11.56,1.5a43.39,43.39,0,0,0-22.63,6.43c-13.07,7.84-17.5,23.74-10,38.69C23.49,101,26.2,104.78,28.49,108.87Z"/><path class="cls-2" d="M136.59,90.23c6.75,3.2,11.61,8.81,15.63,15.11,9.56,15,11.66,31.48,5.45,48.32-6.15,16.67-18.29,26.43-34.62,30.1a86.46,86.46,0,0,1-18.93,1.63c-25.72.05-51.45.19-77.17.29h-5.8l12.1-12c-7,2.65-12.62,7.84-19.3,10.95l-.74.59-.11.08c-1.9-.33-4.54-2.06-3.95,2.38v0c-3.72-1.35-5.25,1.05-6.32,4.25a1.54,1.54,0,0,1-.57.22c-.51-.95-1.88-.59-2.27-1.72C4.52,184,10.34,178.93,15.54,173.2c6.77-7.46,13.93-14.51,20.78-21.89a7.88,7.88,0,0,1,6.32-2.89c19.38.12,38.77,0,58.16.19A36.45,36.45,0,0,0,111.64,147a3.47,3.47,0,0,0,1.27.45,43.84,43.84,0,0,0,20.25-6.31c14.58-8.88,17.28-25.26,10-40C141.21,97.29,137.9,94.46,136.59,90.23Z"/><path class="cls-3" d="M28.49,108.87c-2.29-4.09-5-7.85-7.12-12.09-7.46-15-3-30.85,10-38.69A43.39,43.39,0,0,1,54,51.66a17.26,17.26,0,0,0-8.13,8.12C41.17,69.9,47.13,80.94,58.4,81.39c10.36.42,20.75.15,31.12.19h4.42L44,136.11l-1-.84q4.16-7,8.31-13.9c4.8-8,9.83-15.84,14-24.25.46-.26.69-.8.37-1.14s-.64.28-.94.5c-4.75,5.26-9.68,10.35-14.17,15.84-2.81,3.44-5.41,4.35-9.54,2.68s-8.31-2.81-11.88-5.66l-.66-.47Z"/><path class="cls-4" d="M136.59,90.23c1.31,4.23,4.62,7.06,6.55,11,7.3,14.7,4.6,31.08-10,40a43.84,43.84,0,0,1-20.25,6.31,3.47,3.47,0,0,1-1.27-.45c4.93-2.91,8.29-7.12,8.87-13.27.9-9.5-5.76-16.5-15.85-16.58-9.81-.08-19.62.1-29.43.17-1.13,0-2.26,0-4.21,0,5.69-6.2,10.8-11.76,15.9-17.34q15.57-17.06,31.13-34.13c.68,0,1.44-.22,1.87.65-4.53,9.08-10.4,17.26-15.32,26.08-1.76,3.15-3.59,6.25-5.4,9.39,1.51.84,2-.29,2.84-1.22,5-5.65,10.15-11.2,15.22-16.81.65-.72,1.11-1.47,2.29-1.12C125.49,84.6,131.59,85.93,136.59,90.23Z"/></g></g></svg>